<svg xmlns="http://www.w3.org/2000/svg" xmlns:xlink="http://www.w3.org/1999/xlink" version="1.1" x="0px" y="0px" viewBox="0 0 91 113.75" enable-background="new 0 0 91 91" xml:space="preserve"><g><path d="M89.138,26.366l-0.148-0.227c-1.256-1.902-2.826-3.52-4.619-4.809c0,0,0-0.002-0.002-0.002c0,0,0,0-0.002-0.002   c-3.074-2.209-6.801-3.443-10.711-3.443c-3.588,0-7.076,1.049-10.088,3.035l-0.24,0.158l-0.148,0.25   c-0.107,0.182-0.34,0.668-0.15,1.205l4.938,15.225l-1.027,5.01l-7.01,42.212l0.418,0.453c0.166,0.178,1.682,1.738,4.006,1.738   c0.73,0,1.459-0.158,2.162-0.471l0.563-0.25L77.3,44.777l1.008-4.898l10.52-12.023c0.293-0.316,0.426-0.775,0.354-1.223   L89.138,26.366z M64.948,84.59c-0.199,0.047-0.398,0.07-0.596,0.07c-0.729,0-1.344-0.318-1.73-0.584L69.2,44.465l3.633,0.748   l0.506-2.46l-3.682-0.758l0.6-2.912l5.422,1.113l-0.826,4.031L64.948,84.59z M76.743,37.852L70.2,36.506l-4.523-13.945   c0.98-0.574,2.02-1.006,3.086-1.355l0.336,6.563c0.035,0.67,0.59,1.191,1.252,1.191c0.023,0,0.045,0,0.066-0.002   c0.691-0.035,1.225-0.625,1.189-1.318l-0.359-7.043c0.793-0.123,1.596-0.203,2.408-0.203c0.635,0,1.266,0.037,1.887,0.111   l-1.564,5.787c-0.18,0.668,0.217,1.357,0.885,1.539c0.109,0.029,0.221,0.043,0.328,0.043c0.553,0,1.061-0.369,1.211-0.928   l1.602-5.922c1.383,0.393,2.699,0.969,3.92,1.715l-6.738,10.123c-0.385,0.576-0.229,1.355,0.35,1.74   c0.213,0.143,0.453,0.211,0.693,0.211c0.404,0,0.803-0.197,1.045-0.561l6.689-10.049c0.898,0.771,1.721,1.643,2.439,2.613   L76.743,37.852z"/><path d="M51.948,16.485c0-4.6-10.846-6.693-20.924-6.693s-20.926,2.094-20.926,6.693c0,4.602,10.848,6.697,20.926,6.697   S51.948,21.086,51.948,16.485z M12.608,16.485c0-1.42,6.5-4.184,18.416-4.184c11.914,0,18.414,2.764,18.414,4.184   s-6.5,4.186-18.414,4.186C19.108,20.67,12.608,17.905,12.608,16.485z"/><path d="M43.528,34.799c-0.01-0.01-0.012-0.023-0.021-0.033c-1.09-1.09-1.689-2.535-1.689-4.07c0-1.477,0.566-2.859,1.574-3.934   c9.375-1.797,15.576-5.621,15.576-10.277c0-6.49-12.014-11.383-27.943-11.383c-15.932,0-27.945,4.893-27.945,11.383   c0,4.615,6.09,8.414,15.326,10.23c2.16,2.25,2.141,5.834-0.074,8.051c-0.102,0.1-0.166,0.217-0.225,0.338   C9.233,39.792,3.169,49.113,3.169,59.826c0,15.408,12.535,27.943,27.945,27.943S59.06,75.234,59.06,59.826   C59.06,48.875,52.724,39.379,43.528,34.799z M5.589,16.485c0-4.197,10.445-8.873,25.436-8.873c14.986,0,25.432,4.676,25.432,8.873   c0,4.199-10.445,8.879-25.432,8.879C16.034,25.364,5.589,20.684,5.589,16.485z M21.772,27.27c2.875,0.387,5.975,0.604,9.252,0.604   c3.188,0,6.209-0.205,9.018-0.57c-0.477,1.055-0.734,2.201-0.734,3.393c0,0.877,0.143,1.73,0.404,2.543   c-2.711-0.877-5.598-1.357-8.598-1.357c-3.168,0-6.211,0.535-9.053,1.514C22.747,31.401,22.651,29.202,21.772,27.27z    M31.114,85.258c-14.023,0-25.434-11.408-25.434-25.432c0-14.025,11.41-25.435,25.434-25.435c14.025,0,25.436,11.41,25.436,25.435   C56.55,73.85,45.14,85.258,31.114,85.258z"/><path d="M31.114,37.075c-12.545,0-22.75,10.207-22.75,22.751s10.205,22.75,22.75,22.75s22.752-10.205,22.752-22.75   S43.659,37.075,31.114,37.075z M10.874,59.826c0-10.736,8.41-19.525,18.984-20.177v40.355   C19.284,79.35,10.874,70.563,10.874,59.826z M32.37,80.004V39.649c10.574,0.652,18.986,9.441,18.986,20.177   S42.944,79.35,32.37,80.004z"/></g></svg>