<svg xmlns="http://www.w3.org/2000/svg" xmlns:xlink="http://www.w3.org/1999/xlink" version="1.1" x="0px" y="0px" viewBox="0 0 91 113.75" enable-background="new 0 0 91 91" xml:space="preserve"><g><path d="M88.588,25.85l-0.043-0.27l-0.15-0.229c-3.408-5.168-9.141-8.254-15.332-8.254c-3.588,0-7.076,1.049-10.088,3.035   l-0.236,0.154l-0.146,0.242c-0.109,0.18-0.346,0.664-0.158,1.217l4.938,15.226l-0.767,3.738l6.139,1.258l-0.506,2.459l-6.092-1.248   l-6.813,41.016l0.42,0.451c0.166,0.178,1.68,1.736,4.004,1.736c0.73,0,1.457-0.158,2.162-0.471l0.564-0.25l10.223-41.67   l1.006-4.897l10.52-12.021C88.525,26.754,88.656,26.299,88.588,25.85z M76.152,37.066l-6.546-1.344l-4.524-13.946   c0.982-0.575,2.018-1.034,3.086-1.383l0.336,6.588c0.035,0.67,0.59,1.191,1.254,1.191c0.021,0,0.043,0,0.064-0.002   c0.693-0.035,1.227-0.625,1.189-1.318l-0.36-7.052c0.795-0.123,1.6-0.192,2.411-0.192c0.635,0,1.264,0.038,1.885,0.112   l-1.563,5.783c-0.182,0.67,0.215,1.359,0.885,1.541c0.107,0.029,0.219,0.043,0.328,0.043c0.553,0,1.059-0.369,1.211-0.928   l1.6-5.922c1.385,0.394,2.701,0.969,3.922,1.716l-6.74,10.124c-0.385,0.576-0.229,1.355,0.35,1.74   c0.213,0.143,0.455,0.211,0.693,0.211c0.406,0,0.805-0.197,1.045-0.561l6.689-10.05c0.899,0.771,1.723,1.642,2.441,2.615   L76.152,37.066z"/><path d="M42.932,34.01c-0.008-0.009-0.011-0.021-0.019-0.029c-1.088-1.09-1.689-2.535-1.689-4.072c0-1.469,0.563-2.846,1.562-3.916   c9.392-1.794,15.588-5.633,15.588-10.293c0-6.49-12.014-11.385-27.943-11.385C14.499,4.315,2.485,9.209,2.485,15.7   c0,4.619,6.087,8.428,15.336,10.242c2.148,2.251,2.127,5.825-0.084,8.039c-0.098,0.098-0.163,0.215-0.221,0.333   C8.641,39.002,2.577,48.323,2.577,59.036c0,15.41,12.535,27.947,27.943,27.947c15.41,0,27.945-12.537,27.945-27.947   C58.465,48.086,52.129,38.59,42.932,34.01z M9.506,15.7c0-4.602,10.846-6.697,20.924-6.697s20.923,2.096,20.923,6.697   s-10.845,6.697-20.923,6.697S9.506,20.301,9.506,15.7z M21.183,26.492c2.872,0.385,5.975,0.594,9.247,0.594   c3.184,0,6.208-0.199,9.014-0.563c-0.474,1.052-0.731,2.198-0.731,3.386c0,0.877,0.141,1.731,0.403,2.542   c-2.71-0.878-5.598-1.359-8.597-1.359c-3.167,0-6.21,0.538-9.051,1.513C22.152,30.616,22.057,28.422,21.183,26.492z M30.52,84.474   c-14.023,0-25.434-11.41-25.434-25.438c0-14.023,11.41-25.432,25.434-25.432c14.025,0,25.435,11.409,25.435,25.432   C55.955,73.063,44.545,84.474,30.52,84.474z"/><path d="M7.77,59.04c0,12.121,9.535,22.031,21.496,22.688V36.461c0-0.039,0.018-0.074,0.021-0.111   C17.317,36.997,7.77,46.909,7.77,59.04z"/><path d="M31.754,36.35c0.002,0.037,0.021,0.072,0.021,0.111v45.266c11.961-0.656,21.496-10.566,21.496-22.688   C53.271,46.909,43.723,36.997,31.754,36.35z"/></g><line fill="none" x1="935.833" y1="84" x2="934.862" y2="83.833"/></svg>