<svg xmlns="http://www.w3.org/2000/svg" xmlns:xlink="http://www.w3.org/1999/xlink" version="1.1" preserveAspectRatio="none" x="0px" y="0px" viewBox="0 0 100 125"><defs><g id="a"><path fill="#000000" stroke="none" d=" M 31.25 66.7 Q 30.85 67 30.75 67.7 30.3 70.35 33.4 74.85 34.8 76.25 34.95 76.15 35.15 76.1 34.1 74.6 32.2 71.6 32.75 66.95 32.6 66.3 32 66.45 L 31.25 66.7 M 52.1 49.2 Q 57.4 49.05 52.1 48.3 35.25 47.4 25.1 56.75 23.4 58.55 25.5 57.3 39.5 49 52.1 49.2 M 86.9 51.05 Q 86.8 50.6 86.05 51.05 L 83.15 53 Q 81.9 53.85 79.45 54.5 77.7 54.8 75.9 54.8 74.85 54.65 75.3 53.5 L 76.45 50.05 Q 76.75 49.25 76.4 49.1 76.15 48.95 75.4 49.7 72.2 52.45 68.9 52.3 68.15 52.3 68.15 51.3 L 68.15 49.95 Q 68.15 48.3 67.2 49.5 65.1 51.95 58.75 51.95 43.9 51.5 32.6 56.75 26.5 60.1 19.5 66.95 L 14.5 71.95 Q 13.2 73.25 14.85 72.6 24.55 67.3 35.4 64 L 37.4 63.5 Q 37.15 64.5 37.15 65.95 37.15 70.7 40.4 73.95 43.75 77.25 48.4 77.25 53 77.25 56.4 73.95 59.7 70.65 59.7 65.95 59.7 63.85 59.1 62.05 L 67.9 63.7 Q 69.2 63.95 68.8 65 66.6 72.35 59.15 75.85 57.25 77 59.4 76.6 68.7 73.7 73.15 67 L 74.55 64.45 Q 74.95 63.75 76.15 63.55 79.75 63.1 83.4 61.1 85.45 60.05 87.3 58.05 89.75 55.6 86.55 57.6 85 58.65 82.7 59.45 81 59.75 81.95 58.6 85.9 55.3 86.65 52.85 87.15 51.55 86.9 51.05 M 39.35 65.95 Q 39.35 64.2 39.75 63 41.4 62.6 43.45 62.35 L 43.4 62.45 Q 42 64.45 42.4 67 42.85 69.5 44.95 70.85 47.1 72.35 49.5 71.95 52.05 71.4 53.4 69.35 54.1 68.35 54.35 67.45 L 54.15 67.5 Q 53 67.75 51.9 67 50.85 66.35 50.65 65.1 50.4 63.85 51.15 62.85 51.75 61.95 52.75 61.7 L 52.75 61.6 56.5 61.8 Q 57.5 63.6 57.5 65.95 57.5 69.75 54.9 72.35 52.15 75.1 48.4 75.1 44.7 75.1 41.95 72.35 39.35 69.75 39.35 65.95 M 90.3 26.25 Q 94.25 26.8 89.85 25.5 78.3 21.95 65.7 23.05 59.95 23.7 56.15 24.4 47.2 26.2 38.35 29.3 24.6 34.2 12.75 37.3 6.85 38.9 7.85 42.8 8.75 46 13.4 45.55 21.4 44.6 36.4 38.25 46.75 33.65 58.6 29 72.55 24.15 90.3 26.25 Z"/></g></defs><g transform="matrix( 1, 0, 0, 1, 0,0) "><use xlink:href="#a"/></g></svg>