<svg xmlns="http://www.w3.org/2000/svg" xmlns:xlink="http://www.w3.org/1999/xlink" version="1.1" x="0px" y="0px" viewBox="0 0 91 113.75" enable-background="new 0 0 91 91" xml:space="preserve"><g><path d="M44.674,18.478c-0.01-0.027-0.015-0.054-0.027-0.081c-0.005-0.011-0.006-0.023-0.011-0.034l-2.51-5.219   c-0.105-0.218-0.269-0.396-0.467-0.52v-1.289c0-0.693-0.561-1.254-1.256-1.254c-0.693,0-1.254,0.561-1.254,1.254v1.289   c-0.198,0.124-0.362,0.302-0.467,0.52l-2.51,5.219c-0.005,0.011-0.006,0.023-0.011,0.034c-0.012,0.025-0.017,0.053-0.026,0.079   c-0.045,0.123-0.07,0.249-0.076,0.376c-0.001,0.02-0.011,0.036-0.011,0.055v63.374h8.713V18.909c0-0.021-0.011-0.039-0.012-0.059   C44.744,18.723,44.719,18.599,44.674,18.478z M39.3,17.653l1.104-2.297l1.105,2.297H39.3z"/><path d="M24.775,59.28c-0.111-0.314-0.344-0.57-0.645-0.713s-0.648-0.16-0.959-0.047l-5.84,2.082   c-0.652,0.234-0.992,0.951-0.762,1.604l8.633,24.225c0.186,0.514,0.668,0.834,1.184,0.834c0.141,0,0.281-0.023,0.422-0.072   l5.842-2.082c0.313-0.111,0.568-0.344,0.711-0.645c0.145-0.299,0.16-0.645,0.049-0.959L24.775,59.28z"/><path d="M36.048,88.728c0,0.693,0.563,1.256,1.256,1.256h6.201c0.693,0,1.256-0.563,1.256-1.256v-3.936h-8.713V88.728z"/><path d="M75.709,38.442c-0.771-0.615-2.146-1.225-4.348-0.619c-1.105,0.305-2.039,0.865-2.943,1.408   c-1.162,0.699-2.148,1.293-3.322,1.258c-2.734-0.102-3.666-3.174-3.625-5.217c0.09-4.619,2.371-9.023,4.576-13.283   c0.51-0.984,1.014-1.959,1.484-2.924c1.492-3.051,1.777-6.959,0.73-9.961c-0.775-2.229-2.25-3.912-4.26-4.871   c-5.799-2.764-16.729-1.811-21.225,3.236c-0.461,0.518-0.416,1.311,0.102,1.773c0.516,0.459,1.309,0.414,1.773-0.104   c3.655-4.104,13.391-4.963,18.27-2.641c1.412,0.674,2.412,1.828,2.971,3.432c0.951,2.73,0.377,6.002-0.615,8.031   c-0.463,0.949-0.959,1.906-1.459,2.873c-2.338,4.516-4.756,9.186-4.857,14.389c-0.076,3.75,1.977,7.623,6.041,7.773   c1.896,0.07,3.393-0.824,4.709-1.613c0.793-0.477,1.543-0.928,2.316-1.141c0.947-0.26,1.658-0.205,2.115,0.16   c0.672,0.537,1.027,1.887,0.947,3.612c-0.031,0.693,0.504,1.279,1.197,1.313c0.02,0,0.039,0,0.059,0   c0.666,0,1.221-0.523,1.252-1.197C77.719,41.493,77.066,39.526,75.709,38.442z"/></g><line fill="none" x1="935.833" y1="84" x2="934.862" y2="83.833"/></svg>