<svg xmlns="http://www.w3.org/2000/svg" xmlns:xlink="http://www.w3.org/1999/xlink" viewBox="0 0 60 58.75" version="1.1" x="0px" y="0px"><title>81 -Make-up Set- (grooming, hair, saloon, hygiene, beauty, style)</title><desc>Created with Sketch.</desc><g stroke="none" stroke-width="1" fill="none" fill-rule="evenodd"><g transform="translate(-120.000000, -1386.000000)" fill="#000000"><g transform="translate(120.000000, 1386.000000)"><path d="M31.4116,32.502 C31.1046,32.279 30.7896,32.137 30.4706,32.064 C30.3336,32.034 30.1946,32.01 30.0516,32.007 C30.0176,32.006 29.9826,32.006 29.9486,32.007 C29.8056,32.01 29.6666,32.034 29.5296,32.064 C29.2106,32.137 28.8946,32.279 28.5886,32.502 L28.2956,32.715 C27.5146,33.438 26.9996,34.639 26.9996,36 C26.9996,38.206 28.3456,40 29.9996,40 C31.6546,40 32.9996,38.206 32.9996,36 C32.9996,34.639 32.4856,33.438 31.7046,32.715 L31.4116,32.502 Z"/><path d="M28.5884,14.498 C28.8954,14.721 29.2114,14.863 29.5294,14.936 C29.6674,14.966 29.8054,14.99 29.9484,14.993 C29.9824,14.994 30.0174,14.994 30.0514,14.993 C30.1944,14.99 30.3334,14.966 30.4704,14.936 C30.7894,14.863 31.1044,14.721 31.4114,14.498 L31.7044,14.285 C32.4854,13.562 33.0004,12.361 33.0004,11 C33.0004,8.794 31.6544,7 30.0004,7 C28.3454,7 27.0004,8.794 27.0004,11 C27.0004,12.361 27.5144,13.562 28.2954,14.285 L28.5884,14.498 Z"/><path d="M19.875,7 L7.125,7 C7.056,7 7,7.056 7,7.125 L7,19.875 C7,19.944 7.056,20 7.125,20 L19.875,20 C19.944,20 20,19.944 20,19.875 L20,7.125 C20,7.056 19.944,7 19.875,7"/><path d="M19.875,27 L7.125,27 C7.056,27 7,27.056 7,27.125 L7,39.875 C7,39.944 7.056,40 7.125,40 L19.875,40 C19.944,40 20,39.944 20,39.875 L20,27.125 C20,27.056 19.944,27 19.875,27"/><path d="M29,16.879 L29,30.121 C29.323,30.042 29.658,30 30,30 C30.342,30 30.677,30.042 31,30.121 L31,16.879 C30.677,16.958 30.342,17 30,17 C29.658,17 29.323,16.958 29,16.879"/><path d="M55,19.875 C55,21.047 54.047,22 52.875,22 L40.125,22 C38.953,22 38,21.047 38,19.875 L38,7.125 C38,5.953 38.953,5 40.125,5 L52.875,5 C54.047,5 55,5.953 55,7.125 L55,19.875 Z M55,39.875 C55,41.047 54.047,42 52.875,42 L40.125,42 C38.953,42 38,41.047 38,39.875 L38,27.125 C38,25.953 38.953,25 40.125,25 L52.875,25 C54.047,25 55,25.953 55,27.125 L55,39.875 Z M35,36 C35,39.309 32.757,42 30,42 C27.243,42 25,39.309 25,36 C25,34.043 25.788,32.307 27,31.211 L27,15.789 C25.788,14.693 25,12.957 25,11 C25,7.691 27.243,5 30,5 C32.757,5 35,7.691 35,11 C35,12.957 34.212,14.693 33,15.789 L33,31.211 C34.212,32.307 35,34.043 35,36 L35,36 Z M22,19.875 C22,21.047 21.047,22 19.875,22 L7.125,22 C5.953,22 5,21.047 5,19.875 L5,7.125 C5,5.953 5.953,5 7.125,5 L19.875,5 C21.047,5 22,5.953 22,7.125 L22,19.875 Z M22,39.875 C22,41.047 21.047,42 19.875,42 L7.125,42 C5.953,42 5,41.047 5,39.875 L5,27.125 C5,25.953 5.953,25 7.125,25 L19.875,25 C21.047,25 22,25.953 22,27.125 L22,39.875 Z M57.219,0 L2.781,0 C1.248,0 0,1.248 0,2.781 L0,44.219 C0,45.752 1.248,47 2.781,47 L57.219,47 C58.752,47 60,45.752 60,44.219 L60,2.781 C60,1.248 58.752,0 57.219,0 L57.219,0 Z"/><path d="M52.875,7 L40.125,7 C40.056,7 40,7.056 40,7.125 L40,19.875 C40,19.944 40.056,20 40.125,20 L52.875,20 C52.944,20 53,19.944 53,19.875 L53,7.125 C53,7.056 52.944,7 52.875,7"/><path d="M52.875,27 L40.125,27 C40.056,27 40,27.056 40,27.125 L40,39.875 C40,39.944 40.056,40 40.125,40 L52.875,40 C52.944,40 53,39.944 53,39.875 L53,27.125 C53,27.056 52.944,27 52.875,27"/></g></g></g></svg>