<svg xmlns="http://www.w3.org/2000/svg" xmlns:xlink="http://www.w3.org/1999/xlink" version="1.1" x="0px" y="0px" viewBox="0 0 100 125" enable-background="new 0 0 100 100" xml:space="preserve"><g><path d="M82.1,64.8c-0.2-7.9-6.7-14.3-14.7-14.3h-8.6c-7.9,0-14.4,6.3-14.7,14.3l-0.8,26c0,2.3,1.9,4.3,4.3,4.3h31   c2.3,0,4.3-1.9,4.3-4.3L82.1,64.8z"/><rect x="57.6" y="44.8" width="11.1" height="4.2"/><path d="M68.6,41.8c0-0.8-0.6-1.4-1.4-1.4H59c-0.8,0-1.4,0.6-1.4,1.4v1.8h11.1V41.8z"/><path d="M78.5,10.7c0.7-3.6-3.9-5.5-7.6-1.7c0,0,2.2,2.2,2.6,5.3C73.6,14.4,78.1,13,78.5,10.7z"/><path d="M24,43.8c0,0,1.2-6.1,4-8.8c1.7-1.6,10.1-5.2,17.8-8.3c1-0.4,2-0.8,2.9-1.2c3.1-1.3,5.8-2.4,7.8-3.2   c1.7-0.7,2.4-2.7,1.4-4.2c0,0,0,0,0-0.1c-0.6-0.9-1.5-1.4-2.5-1.4c-0.4,0-0.9,0.1-1.3,0.3c-1.9,0.9-5.1,2.4-8.5,4c0,0-0.1,0-0.1,0   c-7,3.3-15.5,7.3-18.6,9C20,33.4,21,43.8,21,43.8H24z"/><path d="M24.1,49.6c-0.3-0.3-0.9-1.3-1.1-1.6c0,0,0,0,0,0l-0.2-0.3c-0.1-0.2-0.4-0.2-0.5,0l-0.1,0.3c0,0,0,0,0,0   c-0.2,0.4-0.8,1.3-1.1,1.6c-2.3,2.1-3.9,3.6-3.9,6.7c0,4.3,3.3,7.2,7,6.1c2.3-0.7,3.9-3.2,3.9-6.2C28,53.3,26.6,52,24.1,49.6z"/><path d="M46.7,18.4c-0.1-3.3,1.1-5.9,3.4-6.8c3.4-1.4,8,1.9,10.2,7.3c2.2,5.4,1.2,10.9-2.2,12.3c-2.7,1.1-6-0.7-8.4-4.1   c-0.9,0.4-1.9,0.8-3,1.2c3.3,5.2,8.6,8,12.8,6.3c0.7-0.3,1.3-0.7,1.8-1.1c0,0,0,0,0,0l9.4-7.5c1.9-1.5,3-3.8,3-6.3   c-0.1-7-3.9-11.1-6.9-13.3c-1.9-1.3-4.2-1.8-6.5-1.2l-9.6,2.4c-0.6,0.1-1.3,0.2-1.9,0.5c-3.8,1.6-5.7,6.3-5.1,11.7   C44.6,19.3,45.7,18.8,46.7,18.4z"/></g></svg>