<svg xmlns="http://www.w3.org/2000/svg" xmlns:xlink="http://www.w3.org/1999/xlink" version="1.1" x="0px" y="0px" viewBox="0 0 512 640" enable-background="new 0 0 512 512" xml:space="preserve"><g><path d="M371.5,181.9c-15.5-15.5-33.8-27.6-54.2-35.8c-18.4-7.4-39.6-3-53.8,11.3c-4.2,4.1-10.9,4.1-15,0   c-14.3-14.3-35.4-18.7-53.8-11.3c-20.4,8.2-38.7,20.3-54.2,35.8l-69.9,69.9l69.9,69.9c31.8,31.8,73.7,47.8,115.5,47.8   c41.8,0,83.7-15.9,115.5-47.8l69.9-69.9L371.5,181.9z M343.7,293.9c-48.3,48.3-127,48.3-175.3,0l-42.1-42.1l42.1-42.1   c11.8-11.8,25.6-20.9,41-27.1c3.7-1.5,8.2-0.4,11.2,2.6c19.5,19.5,51.2,19.5,70.7,0c3-3,7.5-4.1,11.2-2.6   c15.5,6.2,29.3,15.4,41.1,27.1l42.1,42.1L343.7,293.9z"/><path d="M256,232.1c-14.8,0.1-29.5,3.2-40.6,8.4c-11.1,4.7-18.5,11.3-18.5,11.3s7.4,6.6,18.5,11.3c11.1,5.2,25.9,8.4,40.6,8.4   c14.8,0,29.5-3.1,40.6-8.4c11.1-4.7,18.5-11.3,18.5-11.3s-7.4-6.6-18.5-11.3C285.5,235.2,270.8,232.1,256,232.1z"/></g></svg>