<svg xmlns="http://www.w3.org/2000/svg" xmlns:xlink="http://www.w3.org/1999/xlink" xmlns:sketch="http://www.bohemiancoding.com/sketch/ns" viewBox="0 0 32 86.25" version="1.1" x="0px" y="0px"><title>mascara</title><desc>Created with Sketch.</desc><g stroke="none" stroke-width="1" fill="none" fill-rule="evenodd" sketch:type="MSPage"><g sketch:type="MSLayerGroup" transform="translate(-1542.000000, -548.000000)"><g transform="translate(1275.000000, 1.000000)" sketch:type="MSShapeGroup"><g transform="translate(267.000000, 547.000000)"><path d="M11.5555556,31.3636364 L11.5555556,68.1023976 C11.5555556,68.5981297 11.1442872,69 10.6488105,69 L0.906745063,69 C0.405963593,69 0,68.5969185 0,68.1023976 L0,31.3636364 L11.5555556,31.3636364 Z" fill="#000000"/><rect fill="#000000" x="0" y="25.0909091" width="11.5555556" height="4.48051948" rx="0.900000095"/><path d="M11.5555556,2.22044605e-16 L11.5555556,22.4057026 C11.5555556,22.8988921 11.1442872,23.2987013 10.6488105,23.2987013 L0.906745063,23.2987013 C0.405963593,23.2987013 0,22.904583 0,22.4057026 L0,3.33066907e-16 L11.5555556,0 Z" fill="#000000" transform="translate(5.777778, 11.649351) scale(1, -1) translate(-5.777778, -11.649351) "/><path d="M32,45.7012987 L32,68.1070013 C32,68.6001908 31.5887317,69 31.0932549,69 L21.3511895,69 C20.850408,69 20.4444444,68.6058817 20.4444444,68.1070013 L20.4444444,45.7012987 L32,45.7012987 L32,45.7012987 Z M20.4444444,41.2313753 C20.4444444,40.7306187 20.8557128,40.3246753 21.3511895,40.3246753 L31.0932549,40.3246753 C31.5940364,40.3246753 32,40.7222915 32,41.2313753 L32,43.8984948 C32,44.3992514 31.5887317,44.8051948 31.0932549,44.8051948 L21.3511895,44.8051948 C20.850408,44.8051948 20.4444444,44.4075786 20.4444444,43.8984948 L20.4444444,41.2313753 Z M24.8888889,3.58441558 L27.5555556,3.58441558 L27.5555556,39.4285714 L24.8888889,39.4285714 L24.8888889,3.58441558 Z" fill="#000000"/><g transform="translate(22.222222, 3.584416)" stroke="#000000" stroke-width="0.5" stroke-linecap="round"><path d="M1.16210938,8.28896104 L6.79747179,8.28896104"/><path d="M2.00759549,10.0811688 L6.0687934,10.0811688"/><path d="M1.47526042,9.18506494 L6.48177083,9.18506494"/><path d="M0.993109809,7.39285714 L6.99598524,7.39285714"/><path d="M0.932128906,6.49675325 L7.08458116,6.49675325"/><path d="M0.897081163,5.60064935 L7.12923177,5.60064935"/><path d="M0.838541667,4.70454545 L7.11957465,4.70454545"/><path d="M0.927842882,3.80844156 L7.06521267,3.80844156"/><path d="M1.07638889,2.91233766 L6.93798828,2.91233766"/><path d="M1.3141276,2.01623377 L6.69721137,2.01623377"/><path d="M1.65082465,1.12012987 L6.39599609,1.12012987"/></g></g></g></g></g></svg>